<?xml version="1.0" encoding="UTF-8"?>
<svg width="147px" height="28px" viewBox="0 0 147 28" version="1.1" xmlns="http://www.w3.org/2000/svg" xmlns:xlink="http://www.w3.org/1999/xlink">
    <!-- Generator: Sketch 58 (84663) - https://sketch.com -->
    <title>Group</title>
    <desc>Created with Sketch.</desc>
    <g id="Page-1" stroke="none" stroke-width="1" fill="none" fill-rule="evenodd">
        <g id="NavigationBar" transform="translate(-301.000000, -24.000000)">
            <g id="01_Header" transform="translate(40.000000, -1.000000)">
                <g id="00_Header">
                    <g id="Group" transform="translate(261.000000, 25.000000)">
                        <path d="M-7.67386155e-13,21.6533143 L-7.67386155e-13,0.00245714286 L7.72571429,0.00245714286 C11.6097143,0.00245714286 14.3222857,2.58988571 14.3222857,6.29445714 C14.3222857,9.99902857 11.6097143,12.5858857 7.72571429,12.5858857 L3.06114286,12.5858857 L3.06114286,21.6533143 L-7.67386155e-13,21.6533143 Z M3.06114286,9.9516 L7.176,9.9516 C9.65828571,9.9516 11.2,8.56188571 11.2,6.32474286 C11.2,4.04988571 9.65828571,2.63617143 7.176,2.63617143 L3.06114286,2.63617143 L3.06114286,9.9516 Z" id="Fill-5" fill="#1F2732"/>
                        <path d="M24.0841143,9.15582857 C23.6389714,9.0924 23.1938286,9.0604 22.7801143,9.0604 C20.2681143,9.0604 18.5824,10.6186857 18.5824,13.9895429 L18.5824,21.6535429 L15.5932571,21.6535429 L15.5932571,6.3204 L18.5195429,6.3204 L18.5195429,9.02897143 C19.6321143,6.67525714 21.5401143,5.8804 23.0984,5.8804 C23.5115429,5.8804 23.9252571,5.94382857 24.0841143,5.97582857 L24.0841143,9.15582857 Z" id="Fill-6" fill="#1F2732"/>
                        <path d="M40.5449714,13.9725143 C40.5449714,18.6376571 37.3078286,22.0965143 32.7381143,22.0965143 C28.1684,22.0965143 24.9318286,18.6376571 24.9318286,13.9725143 C24.9318286,9.33937143 28.1684,5.88051429 32.7381143,5.88051429 C37.3078286,5.88051429 40.5449714,9.33937143 40.5449714,13.9725143 M37.4986857,13.9725143 C37.4986857,10.4502286 35.2769714,8.54622857 32.7381143,8.54622857 C30.1998286,8.54622857 27.9781143,10.4502286 27.9781143,13.9725143 C27.9781143,17.5268 30.1998286,19.4308 32.7381143,19.4308 C35.2769714,19.4308 37.4986857,17.5268 37.4986857,13.9725143" id="Fill-7" fill="#1F2732"/>
                        <path d="M64.1357714,22.0962857 C60.5769143,22.0962857 58.4163429,19.4271429 58.4163429,15.9631429 L58.4163429,6.33514286 L61.4032,6.33514286 L61.4032,15.5185714 C61.4032,17.6157143 62.3563429,19.4585714 64.8666286,19.4585714 C67.2820571,19.4585714 68.4894857,17.87 68.4894857,15.5505714 L68.4894857,6.33514286 L71.4763429,6.33514286 L71.4763429,21.6534286 L68.6477714,21.6534286 L68.6477714,19.7762857 C67.8220571,21.3654286 65.9157714,22.0962857 64.1357714,22.0962857" id="Fill-8" fill="#1F2732"/>
                        <path d="M93.3248,6.33508571 L96.6339429,6.33508571 L96.6339429,9.03965714 L93.3248,9.03965714 L93.3248,17.1750857 C93.3248,18.5750857 93.9088,19.3219429 95.2556571,19.3219429 C95.6533714,19.3219429 96.1402286,19.2379429 96.1402286,19.2379429 L96.1402286,21.9596571 C96.1402286,21.9596571 95.5642286,22.0962286 94.5973714,22.0962286 C91.9888,22.0962286 90.3339429,20.5053714 90.3339429,17.7373714 L90.3339429,9.03965714 L87.4065143,9.03965714 L87.4065143,6.33508571 L90.3339429,6.33508571 L90.3339429,0.00251428571 L93.3248,0.00251428571 L93.3248,6.33508571 Z" id="Fill-9" fill="#1F2732"/>
                        <path d="M80.4589714,19.3355429 C77.9835429,19.3355429 75.7938286,17.4629714 75.7938286,13.9726857 C75.7938286,10.4184 78.0155429,8.64125714 80.4269714,8.64125714 C81.9715429,8.64125714 82.9766857,9.2624 83.6269714,10.0749714 L85.6869714,8.0144 C84.5578286,6.79268571 82.8509714,5.88068571 80.4269714,5.88068571 C76.0795429,5.88068571 72.7475429,9.21268571 72.7475429,13.9726857 C72.7475429,18.6058286 76.0161143,22.0961143 80.4589714,22.0961143 C84.4252571,22.0961143 86.6149714,19.5258286 87.3452571,17.3361143 L84.7109714,16.1938286 C84.3618286,17.4001143 83.3149714,19.3355429 80.4589714,19.3355429" id="Fill-10" fill="#1F2732"/>
                        <path d="M104.641486,12.8302286 L102.166057,12.2908 C100.992343,12.0370857 100.420914,11.3702286 100.420914,10.4502286 C100.420914,9.4028 101.436343,8.41937143 102.959771,8.41937143 C104.682057,8.41937143 105.642057,9.43537143 106.208914,10.5056571 L108.184914,8.52965714 C107.438629,7.2468 105.924343,5.88051429 102.959771,5.88051429 C99.9769143,5.88051429 97.5329143,8.10165714 97.5329143,10.7039429 C97.5329143,12.8616571 98.9614857,14.4805143 101.341486,14.9879429 L103.943771,15.5593714 C105.212914,15.8450857 105.9112,16.5748 105.9112,17.5268 C105.9112,18.6056571 104.990629,19.5576571 103.308914,19.5576571 C101.150629,19.5576571 99.9449143,18.2885143 99.7546286,16.7016571 L97.0574857,17.6536571 C97.3112,19.3988 99.0883429,22.0965143 103.276914,22.0965143 C107.052914,22.0965143 108.862057,19.5256571 108.862057,17.3679429 C108.862057,15.1148 107.402057,13.4330857 104.641486,12.8302286" id="Fill-11" fill="#1F2732"/>
                        <path d="M53.7591429,0.00268571429 L53.7591429,8.52897143 C53.25,7.28668571 51.7848571,5.88554286 49.0774286,5.88554286 C44.7465714,5.88554286 41.8162857,9.64382857 41.8162857,13.9752571 C41.8162857,18.5295429 44.5871429,22.0964 49.0774286,22.0964 C50.9357143,22.0964 52.5842857,21.3244 53.5711429,20.2924 L56.7214286,21.6535429 L56.7214286,19.7918286 L56.7214286,0.00268571429 L53.7591429,0.00268571429 Z M49.3642857,19.4529714 C46.4985714,19.4529714 44.8734286,17.1284 44.8734286,13.9752571 C44.8734286,10.8221143 46.6574286,8.52897143 49.3962857,8.52897143 C52.1351429,8.52897143 53.7911429,10.7586857 53.7911429,13.9112571 C53.7911429,17.0644 52.1037143,19.4529714 49.3642857,19.4529714 L49.3642857,19.4529714 Z" id="Fill-12" fill="#1F2732"/>
                        <polygon id="Fill-13" fill="#119ABF" points="139.878057 -1.77635684e-15 136.336343 3.54171429 142.7632 3.53371429 142.770629 9.94514286 146.296914 6.41714286 146.296914 -1.77635684e-15"/>
                        <path d="M125.530457,27.9753143 L125.530457,6.33531429 L128.832171,7.75588571 C129.832743,6.70045714 131.539029,5.88045714 133.236743,5.88045714 C137.510457,5.88045714 140.4956,9.23131429 140.4956,14.0284571 C140.4956,18.6296 137.355029,22.0998857 133.189886,22.0998857 C131.697314,22.0998857 130.389314,21.6536 129.444171,20.8324571 L129.444171,27.9753143 L125.530457,27.9753143 Z M132.9716,9.49874286 C130.877314,9.49874286 129.414457,11.3856 129.414457,14.0873143 C129.414457,16.7570286 130.780743,18.4816 132.895029,18.4816 C135.0476,18.4816 136.493886,16.6924571 136.493886,14.0284571 C136.493886,11.2764571 135.1116,9.49874286 132.9716,9.49874286 L132.9716,9.49874286 Z" id="Fill-14" fill="#119ABF"/>
                        <path d="M116.104971,22.0861714 C112.662686,22.0861714 110.258686,19.5564571 110.258686,15.9341714 L110.258686,6.33531429 L114.263829,6.33531429 L114.263829,15.2936 C114.263829,16.2416 114.5324,18.4473143 117.0204,18.4473143 C118.823257,18.4473143 119.898686,17.2913143 119.898686,15.3547429 L119.898686,6.33531429 L123.9044,6.33531429 L123.9044,21.6593143 L120.102114,21.6593143 L120.102114,20.5078857 C119.233543,21.4838857 117.747829,22.0861714 116.104971,22.0861714" id="Fill-15" fill="#119ABF"/>
                    </g>
                </g>
            </g>
        </g>
    </g>
</svg>